HIERARCHY
ROOT chen_peiyu:Solving:Hips
{
	OFFSET 0.000000 0.000000 0.000000
	CHANNELS 6 Xposition Yposition Zposition Xrotation Yrotation Zrotation
	JOINT chen_peiyu:Solving:Spine
	{
		OFFSET 0.000000 -11.210929 2.546455
		CHANNELS 6 Xposition Yposition Zposition Xrotation Yrotation Zrotation
		JOINT chen_peiyu:Solving:Spine1
		{
			OFFSET 0.000000 -8.581483 1.513147
			CHANNELS 6 Xposition Yposition Zposition Xrotation Yrotation Zrotation
			JOINT chen_peiyu:Solving:Spine2
			{
				OFFSET 0.000000 -8.680708 0.759466
				CHANNELS 6 Xposition Yposition Zposition Xrotation Yrotation Zrotation
				JOINT chen_peiyu:Solving:Spine3
				{
					OFFSET 0.000000 -8.713865 0.000000
					CHANNELS 6 Xposition Yposition Zposition Xrotation Yrotation Zrotation
					JOINT chen_peiyu:Solving:Neck
					{
						OFFSET 0.000000 -11.203541 -1.120352
						CHANNELS 6 Xposition Yposition Zposition Xrotation Yrotation Zrotation
						JOINT chen_peiyu:Solving:Neck1
						{
							OFFSET 0.000000 -7.996979 -0.699643
							CHANNELS 6 Xposition Yposition Zposition Xrotation Yrotation Zrotation
							JOINT chen_peiyu:Solving:Head
							{
								OFFSET 0.000000 -7.905571 -1.393964
								CHANNELS 6 Xposition Yposition Zposition Xrotation Yrotation Zrotation
								JOINT chen_peiyu:Solving:HeadEnd
								{
									OFFSET 0.000000 -9.728081 0.000003
									CHANNELS 6 Xposition Yposition Zposition Xrotation Yrotation Zrotation
									End Site
									{
										OFFSET 0.000000 -9.728081 0.000002
									}
								}
							}
						}
					}
					JOINT chen_peiyu:Solving:RightShoulder
					{
						OFFSET 0.000000 -8.002529 -5.397107
						CHANNELS 6 Xposition Yposition Zposition Xrotation Yrotation Zrotation
						JOINT chen_peiyu:Solving:RightArm
						{
							OFFSET -20.031555 -0.000008 0.000000
							CHANNELS 6 Xposition Yposition Zposition Xrotation Yrotation Zrotation
							JOINT chen_peiyu:Solving:RightForeArm
							{
								OFFSET -29.298958 -0.000008 0.000000
								CHANNELS 6 Xposition Yposition Zposition Xrotation Yrotation Zrotation
								JOINT chen_peiyu:Solving:RightHand
								{
									OFFSET -23.063095 -0.000008 0.000000
									CHANNELS 6 Xposition Yposition Zposition Xrotation Yrotation Zrotation
									JOINT chen_peiyu:Solving:RightHandThumb1
									{
										OFFSET -3.309830 2.925671 -2.461148
										CHANNELS 6 Xposition Yposition Zposition Xrotation Yrotation Zrotation
										End Site
										{
											OFFSET -4.885818 0.000000 -4.930992
										}
									}
									JOINT chen_peiyu:Solving:RightHandMiddle1
									{
										OFFSET -8.826195 -0.000004 0.056578
										CHANNELS 6 Xposition Yposition Zposition Xrotation Yrotation Zrotation
										End Site
										{
											OFFSET -6.941605 -0.000004 0.000000
										}
									}
								}
							}
						}
					}
					JOINT chen_peiyu:Solving:LeftShoulder
					{
						OFFSET 0.000000 -8.002529 -5.397107
						CHANNELS 6 Xposition Yposition Zposition Xrotation Yrotation Zrotation
						JOINT chen_peiyu:Solving:LeftArm
						{
							OFFSET 20.031555 -0.000008 0.000000
							CHANNELS 6 Xposition Yposition Zposition Xrotation Yrotation Zrotation
							JOINT chen_peiyu:Solving:LeftForeArm
							{
								OFFSET 29.298958 -0.000008 0.000000
								CHANNELS 6 Xposition Yposition Zposition Xrotation Yrotation Zrotation
								JOINT chen_peiyu:Solving:LeftHand
								{
									OFFSET 23.063095 -0.000008 0.000000
									CHANNELS 6 Xposition Yposition Zposition Xrotation Yrotation Zrotation
									JOINT chen_peiyu:Solving:LeftHandThumb1
									{
										OFFSET 3.309830 2.925671 -2.461148
										CHANNELS 6 Xposition Yposition Zposition Xrotation Yrotation Zrotation
										End Site
										{
											OFFSET 4.885818 0.000000 -4.930992
										}
									}
									JOINT chen_peiyu:Solving:LeftHandMiddle1
									{
										OFFSET 8.826195 -0.000004 0.056578
										CHANNELS 6 Xposition Yposition Zposition Xrotation Yrotation Zrotation
										End Site
										{
											OFFSET 6.941605 -0.000004 0.000000
										}
									}
								}
							}
						}
					}
				}
			}
		}
	}
	JOINT chen_peiyu:Solving:RightUpLeg
	{
		OFFSET -8.842906 0.000000 0.000000
		CHANNELS 6 Xposition Yposition Zposition Xrotation Yrotation Zrotation
		JOINT chen_peiyu:Solving:RightLeg
		{
			OFFSET 0.000000 42.445980 -0.000006
			CHANNELS 6 Xposition Yposition Zposition Xrotation Yrotation Zrotation
			JOINT chen_peiyu:Solving:RightFoot
			{
				OFFSET 0.000000 37.362904 -0.000006
				CHANNELS 6 Xposition Yposition Zposition Xrotation Yrotation Zrotation
				JOINT chen_peiyu:Solving:RightForeFoot
				{
					OFFSET 0.000000 3.537643 -0.000000
					CHANNELS 6 Xposition Yposition Zposition Xrotation Yrotation Zrotation
					JOINT chen_peiyu:Solving:RightToeBase
					{
						OFFSET 0.000000 0.000000 -13.854536
						CHANNELS 6 Xposition Yposition Zposition Xrotation Yrotation Zrotation
						JOINT chen_peiyu:Solving:RightToeBaseEnd
						{
							OFFSET 0.000000 0.000000 -3.949363
							CHANNELS 6 Xposition Yposition Zposition Xrotation Yrotation Zrotation
							End Site
							{
								OFFSET 0.000000 -3.949364 0.000000
							}
						}
					}
				}
			}
		}
	}
	JOINT chen_peiyu:Solving:LeftUpLeg
	{
		OFFSET 8.842906 0.000000 0.000000
		CHANNELS 6 Xposition Yposition Zposition Xrotation Yrotation Zrotation
		JOINT chen_peiyu:Solving:LeftLeg
		{
			OFFSET 0.000000 42.445980 -0.000006
			CHANNELS 6 Xposition Yposition Zposition Xrotation Yrotation Zrotation
			JOINT chen_peiyu:Solving:LeftFoot
			{
				OFFSET 0.000000 37.362904 -0.000006
				CHANNELS 6 Xposition Yposition Zposition Xrotation Yrotation Zrotation
				JOINT chen_peiyu:Solving:LeftForeFoot
				{
					OFFSET 0.000000 3.537643 -0.000000
					CHANNELS 6 Xposition Yposition Zposition Xrotation Yrotation Zrotation
					JOINT chen_peiyu:Solving:LeftToeBase
					{
						OFFSET 0.000000 0.000000 -13.854536
						CHANNELS 6 Xposition Yposition Zposition Xrotation Yrotation Zrotation
						JOINT chen_peiyu:Solving:LeftToeBaseEnd
						{
							OFFSET 0.000000 0.000000 -4.185185
							CHANNELS 6 Xposition Yposition Zposition Xrotation Yrotation Zrotation
							End Site
							{
								OFFSET 0.000000 -4.185188 0.000000
							}
						}
					}
				}
			}
		}
	}
}
MOTION
Frames: 4
Frame Time: 0.041667
0.557525 -117.125305 -92.289421 -86.245598 2.219483 -178.808957 0.000001 -11.210924 2.546435 10.788461 0.426800 0.242529 0.000002 -8.581505 1.513161 -0.614366 -0.132066 0.033244 0.000000 -8.680732 0.759471 -7.481121 -1.873074 -0.612022 -0.000000 -8.713852 0.000007 -7.715564 -0.276422 0.044326 -0.000002 -11.203569 -1.120356 0.469705 -0.208925 2.513477 0.000001 -7.996974 -0.699656 5.180959 1.375872 -1.052865 -0.000000 -7.905567 -1.393954 14.451821 0.195690 -1.668826 0.000000 -9.728088 0.000013 -0.000001 0.000000 0.000000 -0.000002 -8.002563 -5.397124 -0.000007 9.879493 2.422648 -20.031557 0.000007 -0.000018 9.951499 -25.870262 -80.701902 -29.298962 -0.000004 0.000013 16.109763 -17.718571 5.023437 -23.063099 -0.000000 -0.000002 -2.141303 9.997549 12.154423 -3.309803 2.925664 -2.461138 0.000006 -0.000002 0.000004 -8.826222 -0.000009 0.056590 0.000001 0.000000 0.000003 -0.000004 -8.002567 -5.397124 -0.000007 -10.677735 -11.222935 20.031563 0.000017 -0.000009 -0.061054 21.124510 93.932231 29.298941 -0.000009 0.000002 16.465698 12.178165 -3.567786 23.063080 0.000002 -0.000001 0.211547 -3.422264 3.539404 3.309846 2.925690 -2.461188 0.000007 0.000000 0.000001 8.826232 0.000014 0.056549 -0.000001 -0.000001 -0.000002 -8.842903 0.000007 -0.000030 3.075895 13.318140 3.048037 0.000000 42.445961 -0.000016 4.920844 0.000001 -0.000000 0.000003 37.362930 -0.000007 19.170741 -4.193950 20.437797 -0.000006 3.537621 0.000003 -0.000001 0.000000 -0.000001 -0.000009 -0.000014 -13.854527 -16.492892 -0.000001 -0.000000 0.000001 -0.000000 -3.949342 0.000000 -0.000000 0.000001 8.842907 -0.000004 -0.000032 6.166135 -1.739361 -2.912250 -0.000001 42.445984 -0.000013 1.257290 0.000000 0.000000 -0.000001 37.362923 -0.000020 13.846156 -10.776096 -6.776444 0.000001 3.537651 0.000006 -0.000000 0.000004 0.000002 0.000004 0.000020 -13.854532 2.265031 -0.000003 -0.000001 0.000002 -0.000009 -4.185174 -0.000004 0.000001 0.000001 
0.555860 -117.111496 -92.291046 -86.235134 2.228526 -178.805938 0.000001 -11.210916 2.546439 10.790271 0.427000 0.239868 0.000001 -8.581470 1.513149 -0.616046 -0.131895 0.031721 -0.000000 -8.680717 0.759487 -7.473500 -1.879789 -0.615809 0.000000 -8.713858 -0.000001 -7.706666 -0.278150 0.040627 0.000000 -11.203536 -1.120316 0.445487 -0.212197 2.499864 0.000001 -7.996960 -0.699636 5.204618 1.370933 -1.016802 0.000001 -7.905567 -1.393959 14.451248 0.193708 -1.670968 -0.000000 -9.728058 0.000004 -0.000000 0.000000 0.000000 -0.000001 -8.002548 -5.397071 -0.000000 9.858066 2.384568 -20.031557 -0.000008 -0.000020 9.952064 -26.038356 -80.823787 -29.298964 -0.000016 0.000004 16.189182 -17.793415 5.069965 -23.063093 -0.000002 -0.000010 -2.086483 9.986759 11.864156 -3.309827 2.925679 -2.461133 -0.000004 -0.000002 0.000003 -8.826194 0.000004 0.056594 -0.000007 -0.000000 0.000002 -0.000001 -8.002529 -5.397076 -0.000004 -10.610363 -11.176779 20.031557 -0.000005 0.000013 -0.042332 21.398848 94.067291 29.298965 -0.000003 -0.000005 16.409570 12.235625 -3.571436 23.063108 0.000009 -0.000015 0.218891 -3.338045 3.753878 3.309843 2.925651 -2.461200 0.000000 0.000002 -0.000003 8.826206 -0.000002 0.056550 -0.000004 -0.000003 -0.000005 -8.842905 0.000009 -0.000020 3.073726 13.324398 3.043088 0.000003 42.445976 -0.000028 4.926497 0.000001 0.000000 0.000001 37.362896 0.000001 19.209309 -4.180675 20.498344 0.000003 3.537628 0.000036 -0.000002 -0.000001 0.000003 0.000004 0.000023 -13.854503 -16.557733 -0.000004 -0.000001 0.000001 0.000007 -3.949375 0.000000 0.000000 0.000003 8.842907 0.000004 -0.000030 6.166915 -1.729273 -2.915336 -0.000001 42.445984 -0.000012 1.257171 0.000002 -0.000000 -0.000001 37.362926 -0.000036 13.869304 -10.772089 -6.806039 0.000003 3.537651 -0.000006 -0.000001 -0.000001 -0.000001 0.000004 0.000006 -13.854540 2.218149 -0.000002 -0.000002 0.000003 0.000007 -4.185178 0.000000 -0.000003 -0.000000 
0.553513 -117.096916 -92.291550 -86.232094 2.244788 -178.816074 -0.000000 -11.210919 2.546451 10.778353 0.430432 0.251253 0.000000 -8.581472 1.513160 -0.612147 -0.131599 0.029726 0.000000 -8.680710 0.759479 -7.466991 -1.884009 -0.620290 0.000002 -8.713854 0.000007 -7.694951 -0.278285 0.041202 0.000001 -11.203558 -1.120351 0.428924 -0.225613 2.535531 -0.000003 -7.997008 -0.699670 5.211939 1.384921 -1.048055 -0.000002 -7.905578 -1.393957 14.457540 0.195658 -1.666207 -0.000000 -9.728073 0.000013 -0.000002 0.000000 -0.000000 -0.000002 -8.002537 -5.397119 -0.000003 9.845415 2.358241 -20.031563 0.000011 -0.000000 9.940640 -26.219810 -80.954312 -29.298943 0.000004 -0.000007 16.254757 -17.840929 5.104615 -23.063101 -0.000030 0.000008 -2.028069 9.888447 11.651268 -3.309781 2.925682 -2.461142 0.000003 -0.000002 0.000004 -8.826186 0.000017 0.056608 -0.000006 -0.000005 0.000001 -0.000003 -8.002537 -5.397119 -0.000007 -10.586827 -11.154174 20.031549 0.000017 0.000003 -0.073376 21.706133 94.215766 29.298952 -0.000012 0.000006 16.379625 12.252413 -3.569372 23.063086 0.000009 0.000012 0.228786 -3.219218 4.067413 3.309817 2.925674 -2.461155 0.000003 0.000002 0.000004 8.826209 0.000002 0.056562 -0.000001 -0.000002 -0.000001 -8.842906 0.000009 0.000007 3.063589 13.336736 3.055478 0.000000 42.445976 -0.000003 4.933493 0.000000 -0.000001 0.000005 37.362911 0.000026 19.206559 -4.176811 20.477252 -0.000005 3.537644 -0.000009 -0.000002 -0.000001 0.000003 -0.000007 -0.000002 -13.854548 -16.574262 -0.000001 0.000001 -0.000002 -0.000000 -3.949350 0.000000 -0.000000 -0.000001 8.842905 0.000013 0.000005 6.156167 -1.710400 -2.905233 -0.000002 42.445995 -0.000024 1.262895 0.000000 -0.000000 -0.000005 37.362904 -0.000016 13.895958 -10.764563 -6.841891 -0.000004 3.537636 0.000011 -0.000001 0.000002 -0.000001 -0.000002 -0.000005 -13.854537 2.151699 -0.000001 -0.000002 0.000003 -0.000007 -4.185174 0.000003 -0.000002 -0.000000 
0.549760 -117.083847 -92.291451 -86.219664 2.255379 -178.824352 -0.000001 -11.210922 2.546437 10.763193 0.432209 0.261242 -0.000000 -8.581489 1.513171 -0.611737 -0.132474 0.033481 -0.000000 -8.680702 0.759466 -7.450906 -1.884271 -0.622866 0.000001 -8.713852 -0.000006 -7.671866 -0.293594 0.064313 -0.000001 -11.203526 -1.120368 0.427066 -0.219324 2.476234 0.000004 -7.996960 -0.699647 5.208791 1.402041 -1.023111 0.000001 -7.905597 -1.393956 14.454326 0.195309 -1.660456 0.000001 -9.728058 0.000034 -0.000002 -0.000000 0.000000 -0.000002 -8.002522 -5.397144 -0.000002 9.831696 2.311243 -20.031557 0.000032 -0.000035 9.906657 -26.505819 -81.083648 -29.298981 -0.000021 -0.000008 16.150334 -17.854306 5.073847 -23.063091 0.000004 -0.000011 -1.993208 9.868642 11.478350 -3.309821 2.925674 -2.461180 0.000002 0.000003 0.000002 -8.826209 0.000004 0.056563 0.000004 0.000003 0.000001 -0.000005 -8.002522 -5.397143 -0.000006 -11.181879 -11.238649 20.031557 -0.000039 -0.000003 -0.774565 22.905109 94.510209 29.298950 -0.000009 -0.000002 16.038619 11.837654 -3.374998 23.063082 0.000011 -0.000008 0.242045 -3.098462 4.468950 3.309812 2.925666 -2.461166 0.000003 0.000002 -0.000004 8.826192 0.000001 0.056572 -0.000001 0.000001 -0.000003 -8.842905 0.000019 -0.000009 3.064180 13.350100 3.067019 -0.000003 42.445984 -0.000018 4.939006 -0.000001 -0.000000 0.000007 37.362907 -0.000012 19.200543 -4.183216 20.458228 -0.000001 3.537636 0.000017 -0.000003 -0.000001 -0.000003 0.000001 -0.000029 -13.854529 -16.561378 -0.000002 0.000002 -0.000005 0.000008 -3.949385 0.000002 0.000000 -0.000000 8.842903 0.000006 -0.000025 6.157404 -1.693147 -2.895872 0.000001 42.445988 -0.000004 1.268037 0.000000 0.000000 -0.000003 37.362915 -0.000015 13.894745 -10.769268 -6.846988 0.000002 3.537643 -0.000015 0.000001 -0.000002 -0.000001 0.000008 0.000003 -13.854529 2.156153 0.000000 0.000000 -0.000001 -0.000006 -4.185186 0.000005 -0.000002 -0.000000 
